IKResults
version=1
nRows=13
nColumns=40
inDegrees=yes

Units are S.I. units (second, meters, Newtons, ...)
Angles are in degrees.

endheader
time	pelvis_tilt	pelvis_list	pelvis_rotation	pelvis_tx	pelvis_ty	pelvis_tz	hip_flexion_r	hip_adduction_r	hip_rotation_r	knee_angle_r	knee_angle_r_beta	ankle_angle_r	subtalar_angle_r	mtp_angle_r	hip_flexion_l	hip_adduction_l	hip_rotation_l	knee_angle_l	knee_angle_l_beta	ankle_angle_l	subtalar_angle_l	mtp_angle_l	lumbar_extension	lumbar_bending	lumbar_rotation	arm_flex_r	arm_add_r	arm_rot_r	elbow_flex_r	pro_sup_r	wrist_flex_r	wrist_dev_r	arm_flex_l	arm_add_l	arm_rot_l	elbow_flex_l	pro_sup_l	wrist_flex_l	wrist_dev_l
      0.29000000	     -0.28856482	     -7.57807008	     -3.59830918	     -0.93562231	      0.93775199	      0.23027252	     24.30078995	     12.85293309	     -7.94481653	    -29.67078128	     -0.51785282	    -11.32270360	     -7.37959026	      8.27313779	    -13.04896568	      5.38635726	      6.80962351	    -45.98055781	     -0.80251213	      4.08380373	     19.31226637	     21.39578582	    -17.13052760	     12.65653168	     -4.09700572	    -33.24296989	    -27.35505813	     -0.04412142	    111.07669625	     89.95437384	      0.00000000	      0.00000000	    -16.75079959	     23.91623515	    -12.59274679	    135.45605547	     89.95437384	      0.00000000	      0.00000000
      0.30000000	      0.46955267	     -7.86836308	     -4.58808582	     -0.89876837	      0.93212508	      0.23183319	     21.81454467	     14.24727669	     -4.31674018	    -32.39166677	     -0.56534124	     -5.61009798	     -8.49210890	      7.64459677	    -11.21841916	      6.07368907	      7.91885706	    -50.07201828	     -0.87392158	      7.54392971	     19.37457739	     22.15458560	    -17.99388069	     12.85307936	     -2.26979542	    -30.73343660	    -27.87430872	      1.02077741	    110.19648723	     89.95437384	      0.00000000	      0.00000000	    -17.80292470	     23.28293855	    -12.36379289	    134.05012592	     89.95437384	      0.00000000	      0.00000000
      0.31000000	      1.25955941	     -7.83381373	     -5.25839493	     -0.86243410	      0.92563516	      0.23290059	     19.72808135	     14.74678128	     -2.29690759	    -35.96773404	     -0.62775538	      0.01700876	     -7.63821452	      7.40528423	     -9.04072777	      6.32976125	      8.07867171	    -54.39687424	     -0.94940456	     11.78052091	     19.37346102	     23.70331462	    -18.83269000	     12.71307491	     -0.55157969	    -28.29855463	    -28.16865433	      1.95659272	    109.32988245	     89.95437384	      0.00000000	      0.00000000	    -18.65998263	     22.88115437	    -12.16373474	    132.45466771	     89.95437384	      0.00000000	      0.00000000
      0.32000000	      1.92373208	     -7.72381471	     -6.14086328	     -0.82743191	      0.91864814	      0.23441174	     17.81248704	     15.15494361	     -0.24905050	    -38.94467783	     -0.67971285	      4.12597350	     -7.48741915	      6.42058467	     -6.37777462	      6.58461577	      8.24458460	    -58.86118469	     -1.02732147	     13.56932656	     19.35812738	     23.36910349	    -19.76787911	     12.36958154	      1.35725354	    -25.56387806	    -28.40012894	      3.02464493	    108.48450143	     89.95437384	      0.00000000	      0.00000000	    -19.58730398	     22.44064413	    -11.62684009	    130.79080602	     89.95437384	      0.00000000	      0.00000000
      0.33000000	      2.35023651	     -7.30108101	     -6.82425365	     -0.79344086	      0.91113726	      0.23545099	     16.20010586	     14.98208034	      0.96805283	    -41.75579739	     -0.72877615	      7.64666003	     -7.08956848	      4.70068746	     -2.90429862	      6.55777731	      7.97010459	    -63.61100605	     -1.11022150	     15.77224654	     19.33163827	     22.94299100	    -20.47572938	     11.75246267	      3.02709802	    -22.70879139	    -28.63687348	      4.22983831	    107.80082744	     89.95437384	      0.00000000	      0.00000000	    -20.58032249	     22.05685782	    -10.91539250	    128.92758893	     89.95437384	      0.00000000	      0.00000000
      0.34000000	      3.38524813	     -6.96559335	     -7.23668629	     -0.75933580	      0.90526372	      0.23636988	     13.43187172	     14.62884335	      1.72001340	    -43.91720627	     -0.76649985	     10.95829138	     -7.10174949	      3.69299568	      0.02016073	      6.62491783	      7.58048341	    -67.89168070	     -1.18493336	     17.70173669	     19.28790026	     22.36028431	    -21.90900046	     11.15702225	      4.67492493	    -19.88429423	    -28.76475946	      5.33704161	    107.49601071	     89.95437384	      0.00000000	      0.00000000	    -21.50865802	     21.79586182	    -10.07344426	    126.81866145	     89.95437384	      0.00000000	      0.00000000
      0.35000000	      3.89781815	     -6.33237271	     -7.73413509	     -0.72634739	      0.89991710	      0.23720015	     10.94658712	     13.55740452	      1.66731278	    -45.34007845	     -0.79133365	     13.98626537	     -6.09182925	      2.58023767	      3.83573976	      6.45519743	      7.16878932	    -71.96948743	     -1.25610452	     19.96335650	     19.24143447	     21.70768903	    -22.85996378	     10.21962357	      6.22718768	    -16.93635551	    -28.91816569	      6.59390474	    107.49451144	     89.95437384	      0.00000000	      0.00000000	    -22.53016825	     21.47709380	     -9.02720291	    124.60317785	     89.95437384	      0.00000000	      0.00000000
      0.36000000	      2.84102375	     -4.70917113	     -7.71869893	     -0.69462234	      0.89386576	      0.23601464	     10.51438703	     10.66206486	     -0.35526384	    -46.46422363	     -0.81095369	     15.27632060	     -3.25273688	    -11.42165976	     10.05144020	      5.01300369	      5.99622875	    -75.87147033	     -1.32420697	     20.84329468	     19.25577357	     21.83246651	    -21.96381244	      8.75297163	      6.88613093	    -14.29739431	    -28.89568619	      7.58012691	    108.03967958	     89.95437384	      0.00000000	      0.00000000	    -23.65518717	     20.97272408	     -7.87457614	    122.20329632	     89.95437384	      0.00000000	      0.00000000
      0.37000000	      1.86158379	     -3.51201867	     -7.68249361	     -0.66224292	      0.88961559	      0.23595087	      9.13828162	      8.70671581	     -1.40176127	    -46.32806188	     -0.80857722	     17.25695435	     -1.39838954	    -12.09276619	     15.90502091	      4.16780639	      5.18411640	    -78.91377297	     -1.37730516	     21.33538922	     19.23648207	     21.03583660	    -21.10489053	      7.57994946	      7.73646813	    -12.04163966	    -28.88244521	      8.47078188	    109.33831233	     89.95437384	      0.00000000	      0.00000000	    -24.90717119	     20.67037496	     -6.54973385	    120.19868149	     89.95437384	      0.00000000	      0.00000000
      0.38000000	      0.65291976	     -2.13900072	     -7.70502040	     -0.62931697	      0.88626311	      0.23616551	      7.73004956	      6.64784890	     -2.15424475	    -45.66744519	     -0.79704728	     18.78154185	      0.24700269	    -12.96479690	     21.83217247	      3.14852793	      4.72460615	    -81.16742309	     -1.41663878	     21.45739066	     19.22451507	     20.50348236	    -19.82208834	      6.18651040	      8.71506748	    -10.34607012	    -28.90493111	      9.12020946	    111.54914321	     89.95437384	      0.00000000	      0.00000000	    -26.31094785	     20.66920600	     -5.23455925	    118.85834747	     89.95437384	      0.00000000	      0.00000000
      0.39000000	      0.29184281	     -1.00455490	     -7.84033612	     -0.59484772	      0.88567171	      0.23724570	      4.85084598	      5.00041061	     -2.22663381	    -44.00116685	     -0.76796524	     18.57655758	      0.42905664	    -12.75540046	     26.30238059	      2.54180071	      4.86397451	    -82.41335779	     -1.43838444	     21.61325414	     19.17237250	     19.94057680	    -19.32376334	      4.77036471	     10.13423358	     -9.24108209	    -29.00546871	      9.37867436	    114.60903822	     89.95437384	      0.00000000	      0.00000000	    -27.56633293	     21.17188026	     -4.28687732	    118.16748896	     89.95437384	      0.00000000	      0.00000000
      0.40000000	     -1.19972453	      0.65117781	     -7.44236099	     -0.56024143	      0.88490451	      0.23719993	      3.42644903	      2.69812419	     -2.92681824	    -42.43706742	     -0.74066655	     18.78702078	      3.07175554	    -14.49577735	     31.93661340	      0.96192652	      4.59874181	    -82.90528376	     -1.44697017	     21.92606927	     19.15643825	     19.58364070	    -17.31951421	      3.09544799	     10.58182206	     -8.07638740	    -29.01515798	     10.02836978	    117.59211064	     89.95437384	      0.00000000	      0.00000000	    -29.42688510	     21.39838617	     -2.69084899	    117.93051112	     89.95437384	      0.00000000	      0.00000000
      0.41000000	     -1.89070520	      1.77313841	     -7.17181390	     -0.52400488	      0.88734242	      0.23818752	      0.78404017	      1.39341963	     -2.39233891	    -40.16895338	     -0.70108049	     16.93415402	      3.24776118	    -14.18739851	     35.99060415	      0.10270175	      4.71029254	    -82.46078417	     -1.43921219	     21.71076236	     19.02589852	     19.06613241	    -16.22221829	      1.75054963	     11.43788670	     -7.32769552	    -29.03059814	     10.39045440	    120.91270489	     89.95437384	      0.00000000	      0.00000000	    -31.06498881	     21.83507109	     -1.44444485	    117.97915419	     89.95437384	      0.00000000	      0.00000000
